<svg xmlns="http://www.w3.org/2000/svg" width="274" height="30.09" viewBox="0 0 274 30.09" class="header-logo" role="img"><title>Imperial College London</title><g fill="#ffffff"><polygon points="113.63 0 113.63 30.09 133.19 30.09 133.19 24.83 119.35 24.83 119.35 17.3 131.99 17.3 131.99 12.19 119.35 12.19 119.35 5.27 133.19 5.27 133.19 0 113.63 0"></polygon><path d="M89.86,4.81H85.65V15h4.21c3.3,0,5.72-1.59,5.72-5.07s-2.42-5.07-5.72-5.07m.3,15H85.65V30.05H79.93V0H90.16c6.42,0,11.44,2.91,11.44,9.93s-5.06,9.93-11.44,9.93" transform="translate(0 0.05)"></path><polygon points="182.84 0 182.84 5.27 189.91 5.27 189.91 24.83 182.84 24.83 182.84 30.09 202.71 30.09 202.71 24.83 195.63 24.83 195.63 5.27 202.71 5.27 202.71 0 182.84 0"></polygon><path d="M163.66,9.28c0,3.63-2.1,4.77-5.72,4.77h-4.81V4.81h4.81c3.92,0,5.72,1.46,5.72,4.47m6,0c0-7-4.81-9.33-11.13-9.33H147.41v30.1h5.72V18.91h5.6l5.83,11.15h6.33l-6.46-12.34c3.14-1.4,5.25-4.09,5.25-8.43" transform="translate(0 0.05)"></path><path d="M227.79,5.29l4.11,13.28h-8.22ZM224,0l-9.93,30.1h6l2-6.62h11.24l2.05,6.62h6L231.55,0Z" transform="translate(0 0.05)"></path><polygon points="254.39 0 254.39 30.09 274 30.09 274 24.83 260.11 24.83 260.11 0 254.39 0"></polygon><polygon points="57.26 0 50.04 17.69 42.81 0 34.69 0 34.69 30.09 40.11 30.09 40.11 7.59 47.03 23.47 47.33 23.47 52.74 23.47 53.05 23.47 59.97 7.59 59.97 30.09 65.38 30.09 65.38 0 57.26 0"></polygon><polygon points="0 0 0 5.27 7.07 5.27 7.07 24.83 0 24.83 0 30.09 19.86 30.09 19.86 24.83 12.79 24.83 12.79 5.27 19.86 5.27 19.86 0 0 0"></polygon></g></svg>